<svg width="17" height="16" viewBox="0 0 17 16" fill="none" xmlns="http://www.w3.org/2000/svg">
<g clip-path="url(#clip0_1_1046)">
<path d="M4.8875 4.46564C6.83125 2.52189 9.97188 2.51251 11.9281 4.43439L10.6406 5.71876C10.425 5.93438 10.3625 6.25626 10.4781 6.53751C10.5938 6.81876 10.8687 7.00001 11.1719 7.00001H14.9062H15.1719C15.5875 7.00001 15.9219 6.66564 15.9219 6.25001V2.25001C15.9219 1.94689 15.7406 1.67189 15.4594 1.55626C15.1781 1.44064 14.8562 1.50314 14.6406 1.71876L13.3406 3.01876C10.6031 0.315635 6.19375 0.32501 3.47187 3.05001C2.70937 3.81251 2.15937 4.70938 1.82187 5.66876C1.6375 6.19063 1.9125 6.75939 2.43125 6.94376C2.95 7.12813 3.52187 6.85314 3.70625 6.33438C3.94687 5.65313 4.3375 5.01251 4.8875 4.46564ZM0.921875 9.75001V9.98751V10.0094V13.75C0.921875 14.0531 1.10312 14.3281 1.38437 14.4438C1.66562 14.5594 1.9875 14.4969 2.20312 14.2813L3.50312 12.9813C6.24062 15.6844 10.65 15.675 13.3719 12.95C14.1344 12.1875 14.6875 11.2906 15.025 10.3344C15.2094 9.81251 14.9344 9.24376 14.4156 9.05939C13.8969 8.87501 13.325 9.15001 13.1406 9.66876C12.9 10.35 12.5094 10.9906 11.9594 11.5375C10.0156 13.4813 6.875 13.4906 4.91875 11.5688L6.20312 10.2813C6.41875 10.0656 6.48125 9.74376 6.36562 9.46251C6.25 9.18126 5.975 9.00001 5.67188 9.00001H1.93438H1.9125H1.67188C1.25625 9.00001 0.921875 9.33439 0.921875 9.75001Z" fill="white"/>
</g>
<defs>
<clipPath id="clip0_1_1046">
<path d="M0.421875 0H16.4219V16H0.421875V0Z" fill="white"/>
</clipPath>
</defs>
</svg>
